<svg width="1920" height="275" viewBox="0 0 1920 275" fill="none" xmlns="http://www.w3.org/2000/svg">
<path d="M1639.69 206C1790.69 206 1920.19 176 1920.19 176V-8.71695e-06H-2.80756C-2.80756 -8.71695e-06 -102.241 234.832 -2.80756 270.5C77.2785 299.228 102.031 154.539 186.693 163C244.968 168.824 259.463 229.731 317.693 236C379.454 242.65 406.988 178.844 468.693 186C503.676 190.057 520.193 229 553.193 217.5C586.193 206 620.238 187.256 665.693 176C808.149 140.724 964.693 217.5 1039.19 217.5C1113.69 217.5 1125.69 156 1341.19 176C1556.69 196 1488.69 206 1639.69 206Z" fill="#FFE8E8"/>
</svg>
