<svg width="1920" height="275" viewBox="0 0 1920 275" fill="none" xmlns="http://www.w3.org/2000/svg">
<path d="M280.501 68.2808C129.501 68.2808 0.000976562 98.2808 0.000976562 98.2808V274.281H1923C1923 274.281 2022.43 39.4491 1923 3.78077C1842.91 -24.9475 1818.16 119.742 1733.5 111.281C1675.23 105.457 1660.73 44.55 1602.5 38.2808C1540.74 31.6313 1513.21 95.4368 1451.5 88.2808C1416.52 84.2237 1400 45.2808 1367 56.7808C1334 68.2808 1299.96 87.0248 1254.5 98.2808C1112.05 133.557 955.501 56.7808 881.001 56.7808C806.501 56.7808 794.501 118.281 579.001 98.2808C363.501 78.2808 431.501 68.2808 280.501 68.2808Z" fill="#FFE8E8"/>
</svg>
